<?xml version="1.0" encoding="utf-8"?>
<!-- Generator: Adobe Illustrator 15.1.0, SVG Export Plug-In . SVG Version: 6.00 Build 0)  -->
<!DOCTYPE svg PUBLIC "-//W3C//DTD SVG 1.1//EN" "http://www.w3.org/Graphics/SVG/1.1/DTD/svg11.dtd">
<svg version="1.1" id="Layer_1" xmlns="http://www.w3.org/2000/svg" xmlns:xlink="http://www.w3.org/1999/xlink" x="0px" y="0px"
	 width="32px" height="32px" viewBox="0 0 32 32" enable-background="new 0 0 32 32" xml:space="preserve">
<g id="New_Symbol_43">
	<g>
		<g>
			<path d="M95.604,21.952c-0.592-0.925-0.586-1.502-2.559-2.326c-1.971-0.82-2.439-1.105-2.439-1.105l-0.018-1.891
				c0,0,0.738-0.568,0.969-2.348c0.461,0.133,0.947-0.689,0.973-1.123c0.025-0.416-0.062-1.576-0.627-1.461
				c0.113-0.873,0.197-1.656,0.158-2.072c-0.146-1.522-1.645-3.123-3.945-3.123s-3.797,1.601-3.944,3.123
				c-0.04,0.416,0.043,1.199,0.159,2.072c-0.564-0.115-0.655,1.045-0.627,1.461c0.025,0.434,0.51,1.256,0.973,1.123
				c0.229,1.779,0.971,2.348,0.971,2.348l-1.649,1.288c0.921,0.504,3.317,0.236,3.821,1.021c0.293,0.459,1.072,1.674,0.85,8.979
				h7.309C95.978,27.918,96.136,22.778,95.604,21.952z"/>
		</g>
		<g>
			<path d="M85.561,21.275c-0.659-1.028-2.878-1.668-5.074-2.584c-2.195-0.914-2.715-1.234-2.715-1.234l-0.021-2.102
				c0,0,0.821-0.635,1.079-2.615c0.513,0.148,1.055-0.766,1.083-1.25c0.027-0.463-0.071-1.754-0.699-1.625
				c0.129-0.971,0.22-1.846,0.177-2.307C79.229,5.864,77.561,4.081,75,4.081s-4.227,1.783-4.391,3.477
				c-0.045,0.46,0.049,1.336,0.178,2.307c-0.629-0.129-0.73,1.162-0.699,1.625c0.027,0.484,0.568,1.398,1.082,1.25
				c0.256,1.98,1.079,2.615,1.079,2.615l-0.021,2.102c0,0-0.523,0.32-2.715,1.234c-2.197,0.916-4.414,1.557-5.074,2.584
				c-0.594,0.922-0.414,6.643-0.414,6.643H75h10.976C85.976,27.918,86.151,22.197,85.561,21.275z"/>
		</g>
	</g>
</g>
<g id="New_Symbol_94">
	<g>
		<path d="M-21.25,0h-26v8h-2v6h2v4h-2v6h2v8h30V4L-21.25,0z M-43.25,22h-4v-2h4V22z M-43.25,12h-4v-2h4V12z M-25.25,14h-12V8h12V14
			z"/>
	</g>
</g>
<g id="New_Symbol_164">
	<g>
		<path d="M30,12h-4V8.323L19.75,2H6v10H2l-2,2v10h6v4v2h2h16h2v-2v-4h6V14L30,12z M4,16H2v-2h2V16z M24,22v2v4H8v-4v-2V18h16V22z
			 M24,12H8V4h10v6h6V12z M29.686,21.5h-1.873v-3h1.873V21.5z"/>
		<rect x="10" y="20" width="12" height="2"/>
		<rect x="10" y="23.999" width="12" height="2"/>
	</g>
</g>
</svg>
