<?xml version="1.0" encoding="utf-8"?>
<!-- Generator: Adobe Illustrator 15.1.0, SVG Export Plug-In . SVG Version: 6.00 Build 0)  -->
<!DOCTYPE svg PUBLIC "-//W3C//DTD SVG 1.1//EN" "http://www.w3.org/Graphics/SVG/1.1/DTD/svg11.dtd">
<svg version="1.1" id="Layer_1" xmlns="http://www.w3.org/2000/svg" xmlns:xlink="http://www.w3.org/1999/xlink" x="0px" y="0px"
	 width="32px" height="32px" viewBox="0 0 32 32" enable-background="new 0 0 32 32" xml:space="preserve">
<g id="New_Symbol_43">
	<g>
		<g>
			<path d="M31.604-13.879c-0.592-0.925-0.586-1.502-2.559-2.326c-1.971-0.819-2.439-1.104-2.439-1.104l-0.018-1.892
				c0,0,0.738-0.568,0.969-2.348c0.461,0.133,0.947-0.689,0.973-1.123c0.025-0.416-0.062-1.576-0.627-1.461
				c0.113-0.873,0.197-1.656,0.158-2.072c-0.146-1.522-1.645-3.123-3.944-3.123s-3.798,1.601-3.944,3.123
				c-0.04,0.416,0.043,1.199,0.159,2.072c-0.563-0.115-0.655,1.045-0.627,1.461c0.024,0.434,0.51,1.256,0.973,1.123
				c0.229,1.779,0.972,2.348,0.972,2.348l-1.649,1.288c0.921,0.504,3.317,0.236,3.821,1.021c0.293,0.459,1.072,1.674,0.85,8.979
				h7.309C31.979-7.913,32.137-13.054,31.604-13.879z"/>
		</g>
		<g>
			<path d="M21.561-14.556c-0.658-1.028-2.877-1.668-5.074-2.584c-2.195-0.914-2.715-1.234-2.715-1.234l-0.021-2.102
				c0,0,0.821-0.635,1.079-2.615c0.513,0.148,1.055-0.766,1.083-1.25c0.027-0.463-0.071-1.754-0.699-1.625
				c0.129-0.971,0.22-1.846,0.177-2.307c-0.162-1.694-1.83-3.477-4.391-3.477s-4.227,1.783-4.391,3.477
				c-0.045,0.46,0.049,1.336,0.178,2.307c-0.629-0.129-0.73,1.162-0.699,1.625c0.027,0.484,0.568,1.398,1.082,1.25
				c0.256,1.98,1.079,2.615,1.079,2.615l-0.021,2.102c0,0-0.523,0.32-2.715,1.234c-2.197,0.916-4.414,1.557-5.074,2.584
				c-0.594,0.922-0.414,6.643-0.414,6.643H11h10.977C21.977-7.913,22.15-13.634,21.561-14.556z"/>
		</g>
	</g>
</g>
<g id="New_Symbol_94">
	<g>
		<path d="M-21.25,0h-26v8h-2v6h2v4h-2v6h2v8h30V4L-21.25,0z M-43.25,22h-4v-2h4V22z M-43.25,12h-4v-2h4V12z M-25.25,14h-12V8h12V14
			z"/>
	</g>
</g>
<g id="New_Symbol_164">
	<g>
		<path d="M30,67.25h-4v-3.678l-6.25-6.322H6v10H2l-2,2v9.999h6v4v2h2h16h2v-2v-4h6V69.25L30,67.25z M4,71.25H2v-2h2V71.25z
			 M24,77.25v1.999v4H8v-4V77.25v-4h16V77.25z M24,67.25H8v-8h10v6h6V67.25z M29.686,76.75h-1.873v-3h1.873V76.75z"/>
		<rect x="10" y="75.25" width="12" height="2"/>
		<rect x="10" y="79.249" width="12" height="2.001"/>
	</g>
</g>
<g id="New_Symbol_59">
	<path d="M26.008,8.467V1.01h-4.15v4.284l-5.864-4.629L0.054,12.908l2.998,3.304l2.202-1.318v15.172h22.829V14.894l1.677,1.318
		l2.295-3.304L26.008,8.467z M19.782,27.99H11.48V17.613h8.302V27.99z"/>
</g>
</svg>
